<svg width="171" height="79" viewBox="0 0 171 79" fill="none" xmlns="http://www.w3.org/2000/svg">
<g id="Layer_1" clip-path="url(#clip0_1_484)">
<path id="Vector" d="M33.4329 40.4515C30.6381 46.36 27.884 52.333 25.0352 58.1561C22.8604 62.6016 20.0483 65.0389 16.7829 65.7784C16.7062 65.7958 16.6288 65.7912 16.5912 65.9453C16.417 65.951 16.2428 65.9616 16.0686 65.9618C10.7124 65.9676 5.35619 65.9724 0 65.9774V65.1375C0.12629 65.0879 0.112212 64.8956 0.131348 64.7311C0.453034 61.9665 0.775283 59.2021 1.09874 56.4382C2.64492 43.2262 4.20864 30.0207 5.73099 16.7999C6.53874 9.78499 8.90895 5.67607 12.7756 4.80145C13.0089 4.80897 13.2421 4.82304 13.4754 4.82305C27.1122 4.8241 40.749 4.82399 54.3858 4.82399H55.073C54.0031 5.34178 52.9345 5.75948 51.9012 6.43398C49.1266 8.24519 47.0193 11.5838 45.1619 15.6102C42.4575 21.4728 39.6784 27.2239 36.9311 33.0225" fill="#E22B35"/>
<g id="Clip path group">
<mask id="mask0_1_484" style="mask-type:luminance" maskUnits="userSpaceOnUse" x="13" y="0" width="158" height="79">
<g id="clippath">
<path id="Vector_2" d="M55.3377 4.82206L170.874 0L167.862 78.8409L13.3303 75.5785L26.8075 31.2797L52.6331 5.17582L55.3377 4.82206Z" fill="white"/>
</g>
</mask>
<g mask="url(#mask0_1_484)">
<g id="Group">
<path id="Vector_3" d="M36.7962 33.1502C39.5434 27.3516 42.3226 21.6005 45.027 15.7378C46.8843 11.7115 48.9917 8.37287 51.7663 6.56165C52.7996 5.88716 53.8682 5.46945 54.938 4.95166H54.2509C40.6141 4.95166 26.9772 4.95177 13.3404 4.95073C13.1072 4.95071 12.8739 4.93664 12.6407 4.92913C12.6379 4.86912 12.6223 4.82316 12.5939 4.79126C26.7923 4.79126 62.9509 4.9272 66.8142 4.9272C67.0847 4.95692 67.3128 4.9156 67.5789 4.91566C98.6398 4.92292 129.701 4.9225 160.762 4.92253C160.937 4.92253 161.114 4.95497 161.287 4.91663C161.719 4.82055 161.769 5.20764 161.694 5.84246C161.103 10.8486 160.519 15.8569 159.933 20.8646C158.618 32.1036 157.231 43.3176 156.012 54.5903C155.171 62.3668 151.703 66.1587 148.231 66.152C104.578 66.0685 60.9256 66.0972 17.2728 66.0961C17.0007 66.0961 16.7285 66.081 16.4563 66.0729C16.4939 65.9189 16.5713 65.9235 16.648 65.9061C19.9133 65.1666 22.7255 62.7292 24.9003 58.2838C27.7491 52.4607 30.5031 46.4877 33.2979 40.5792" fill="#E32935"/>
</g>
</g>
</g>
</g>
<defs>
<clipPath id="clip0_1_484">
<rect width="170.874" height="78.8409" fill="white"/>
</clipPath>
</defs>
</svg>
