<svg width="144" height="61" viewBox="0 0 144 61" fill="none" xmlns="http://www.w3.org/2000/svg">
<g id="Layer_1" clip-path="url(#clip0_1_491)">
<path id="Vector" d="M28.2864 31.3817C25.9335 35.8778 23.6148 40.423 21.2164 44.8541C19.3854 48.2369 17.0178 50.0916 14.2687 50.6543C14.2041 50.6676 14.1389 50.6641 14.1073 50.7813C13.9606 50.7856 13.8139 50.7937 13.6672 50.7938C9.1578 50.7983 4.64836 50.802 0.138916 50.8058V50.1666C0.245241 50.1289 0.233389 49.9825 0.249499 49.8574C0.520331 47.7536 0.791636 45.65 1.06396 43.5468C2.36571 33.4931 3.68222 23.4443 4.9639 13.3838C5.64396 8.0458 7.63946 4.91908 10.8948 4.25354C11.0912 4.25926 11.2876 4.26996 11.484 4.26998C22.965 4.27078 34.446 4.27069 45.927 4.27069H46.5055C45.6048 4.66471 44.7051 4.98256 43.8352 5.49582C41.4992 6.87407 39.725 9.4146 38.1613 12.4785C35.8844 16.9397 33.5446 21.316 31.2316 25.7285" fill="#1872B3"/>
<g id="Clip path group">
<mask id="mask0_1_491" style="mask-type:luminance" maskUnits="userSpaceOnUse" x="11" y="0" width="133" height="61">
<g id="clippath">
<path id="Vector_2" d="M46.7284 4.26923L144 0.599854L141.464 60.5943L11.3618 58.1118L22.7084 24.4024L44.4513 4.53843L46.7284 4.26923Z" fill="white"/>
</g>
</mask>
<g mask="url(#mask0_1_491)">
<g id="Group">
<path id="Vector_3" d="M31.118 25.8257C33.431 21.4132 35.7708 17.0368 38.0477 12.5757C39.6114 9.51176 41.3856 6.97123 43.7216 5.59298C44.5915 5.07972 45.4912 4.76186 46.3919 4.36785H45.8134C34.3324 4.36785 22.8514 4.36793 11.3704 4.36714C11.174 4.36712 10.9776 4.35642 10.7812 4.3507C10.7789 4.30504 10.7658 4.27007 10.7419 4.24579C22.6957 4.24579 53.138 4.34923 56.3906 4.34923C56.6183 4.37185 56.8104 4.3404 57.0344 4.34045C83.185 4.34597 109.336 4.34566 135.486 4.34568C135.634 4.34568 135.783 4.37036 135.928 4.34119C136.292 4.26808 136.334 4.56264 136.271 5.04571C135.774 8.85512 135.282 12.6663 134.788 16.4769C133.681 25.0293 132.513 33.5626 131.487 42.1407C130.779 48.0583 127.86 50.9437 124.936 50.9386C88.1847 50.875 51.4329 50.8969 14.6811 50.8961C14.452 50.8961 14.2228 50.8846 13.9937 50.8784C14.0253 50.7612 14.0905 50.7647 14.1551 50.7515C16.9042 50.1887 19.2718 48.334 21.1028 44.9513C23.5012 40.5201 25.8199 35.975 28.1728 31.4788" fill="#1A73B4"/>
</g>
</g>
</g>
</g>
<defs>
<clipPath id="clip0_1_491">
<rect width="143.861" height="59.9944" fill="white" transform="translate(0.138916 0.599854)"/>
</clipPath>
</defs>
</svg>
